<svg xmlns="http://www.w3.org/2000/svg" version="1" width="706" height="500"><path d="M482.47 483.657c-.372-2.488-.467-15.466-.21-28.84.596-30.947 3.48-45.48 25.763-129.817 9.95-37.655 10.946-63.323 2.607-67.123-7.41-3.376-15.11.89-27.29 15.11-38.462 44.907-98.924 98.65-146.748 130.444-102.21 67.95-210.84 92.487-275.092 62.137C14.136 443.195-9.456 386.233 7.53 335.26c16.2-48.613 79.246-66.65 115.892-33.158 18.254 16.684 13.776 46.15-8.718 57.358-18.177 9.058-41.134-9.515-35.048-28.356 2.132-6.603 1.78-6.817-6.702-4.09-49.66 15.97-39.123 88.528 15.73 108.302 63.386 22.852 163.084-8.772 262.816-83.365 39.555-29.583 87.17-78.702 81.634-84.21-1.627-1.618-23.936-1.205-45.134.836-62.264 5.994-136.596-6.15-224-36.594-11.275-3.927-27.475-9.55-36-12.492-18.368-6.34-52.774-15.072-76.5-19.414-9.35-1.71-18.02-3.34-19.27-3.617l-2.27-.508.27-21.634.27-21.634 8.5-1.94c33.5-7.648 89.763-21.744 136-34.074 103.33-27.554 114.325-30.287 135.5-33.68 72.547-11.63 112.222-4.366 263.81 48.302 28.51 9.906 60.142 12.385 87.726 6.876 6.345-1.267 13.507-2.16 15.917-1.986l4.38.318 9.283 20.5c5.105 11.275 9.305 20.754 9.333 21.064.027.31-6.138 1.356-13.7 2.324-58.352 7.464-91.55 20.93-110.357 44.76-14.026 17.775-17.694 25.656-20.506 44.06-4.332 28.36 2.212 38.482 33.836 52.345 8.112 3.556 8.142 3.657 1.527 5.19-25.42 5.89-37.166 19.68-49.736 58.395-20.264 62.415-40.038 98.447-56.19 102.388-2.54.62-2.71.424-3.353-3.87zm-58.248-258.025c50.757-5.273 109.47-24.618 144.12-47.483l3.84-2.536-7.508-3.777c-20.05-10.09-48.754-20.743-86.816-32.225-9.484-2.86-42.836-10.108-60.128-13.065l-3.77-.645.77 4.3c6.61 36.912-15.597 61.178-54.52 59.576-34.742-1.43-54.303-22.197-49.71-52.774.85-5.66 1.366-10.472 1.146-10.69-.73-.73-57.627 12.627-94.89 22.276-32.38 8.385-72.895 18.29-98.756 24.144l-8.5 1.924 13.5 4.19c7.425 2.305 31.725 10.226 54 17.603 57.904 19.177 90.37 26.472 135.896 30.537 15.462 1.38 94.22.422 111.326-1.355zM35.355 110.386C35.717 100 36.572 87.9 37.255 83.5l1.245-8 18-.03c32.562-.05 48.636-4.17 142-36.387 74.885-25.84 150.972-36.017 204.55-27.36 45.686 7.38 96.5 20.587 154.95 40.272 57.377 19.323 88.147 22.43 123.5 12.475 3.138-.884 22.092 32.218 19.86 34.684-1.8 1.99-9.016 4.958-19.36 7.963-10.406 3.022-53.376 3.96-67.756 1.478-10.82-1.867-53.166-13.902-81.744-23.233C458.577 61.227 370.028 49.186 319 56.33c-45.385 6.354-63.127 10.72-120.286 29.6C131.516 108.124 72.657 123.9 39.6 128.58l-4.903.692.658-18.886z"/></svg>